<?xml version="1.0" encoding="UTF-8"?> <svg xmlns="http://www.w3.org/2000/svg" width="1791" height="275" viewBox="0 0 1791 275" fill="none"> <path d="M104.96 28.4H106.96V26.4H104.96V28.4ZM76.288 28.4V26.4H75.3795L74.7818 27.0842L76.288 28.4ZM55.936 51.696L54.4298 53.0118L55.936 54.7359L57.4422 53.0118L55.936 51.696ZM35.584 28.4L37.0902 27.0842L36.4925 26.4H35.584V28.4ZM6.656 28.4V26.4H4.656V28.4H6.656ZM6.656 118H4.656V120H6.656V118ZM34.304 118V120H36.304V118H34.304ZM34.304 68.08L35.8062 66.7596L32.304 62.7751V68.08H34.304ZM55.68 92.4L54.1778 93.7204L55.6828 95.4327L57.1847 93.7176L55.68 92.4ZM77.312 67.696H79.312V62.3761L75.8073 66.3784L77.312 67.696ZM77.312 118H75.312V120H77.312V118ZM104.96 118V120H106.96V118H104.96ZM104.96 26.4H76.288V30.4H104.96V26.4ZM74.7818 27.0842L54.4298 50.3802L57.4422 53.0118L77.7942 29.7158L74.7818 27.0842ZM57.4422 50.3802L37.0902 27.0842L34.0778 29.7158L54.4298 53.0118L57.4422 50.3802ZM35.584 26.4H6.656V30.4H35.584V26.4ZM4.656 28.4V118H8.656V28.4H4.656ZM6.656 120H34.304V116H6.656V120ZM36.304 118V68.08H32.304V118H36.304ZM32.8018 69.4004L54.1778 93.7204L57.1822 91.0796L35.8062 66.7596L32.8018 69.4004ZM57.1847 93.7176L78.8167 69.0136L75.8073 66.3784L54.1753 91.0824L57.1847 93.7176ZM75.312 67.696V118H79.312V67.696H75.312ZM77.312 120H104.96V116H77.312V120ZM106.96 118V28.4H102.96V118H106.96ZM208.777 91.888H210.777V89.888H208.777V91.888ZM154.889 91.888H152.889V93.888H154.889V91.888ZM154.889 85.36V83.36H152.889V85.36H154.889ZM191.241 85.36V87.36H193.241V85.36H191.241ZM191.241 60.784H193.241V58.784H191.241V60.784ZM154.889 60.784H152.889V62.784H154.889V60.784ZM154.889 54.512V52.512H152.889V54.512H154.889ZM208.521 54.512V56.512H210.521V54.512H208.521ZM208.521 28.4H210.521V26.4H208.521V28.4ZM127.241 28.4V26.4H125.241V28.4H127.241ZM127.241 118H125.241V120H127.241V118ZM208.777 118V120H210.777V118H208.777ZM208.777 89.888H154.889V93.888H208.777V89.888ZM156.889 91.888V85.36H152.889V91.888H156.889ZM154.889 87.36H191.241V83.36H154.889V87.36ZM193.241 85.36V60.784H189.241V85.36H193.241ZM191.241 58.784H154.889V62.784H191.241V58.784ZM156.889 60.784V54.512H152.889V60.784H156.889ZM154.889 56.512H208.521V52.512H154.889V56.512ZM210.521 54.512V28.4H206.521V54.512H210.521ZM208.521 26.4H127.241V30.4H208.521V26.4ZM125.241 28.4V118H129.241V28.4H125.241ZM127.241 120H208.777V116H127.241V120ZM210.777 118V91.888H206.777V118H210.777ZM346.205 72.944L344.49 71.9143L343.881 72.9283L344.477 73.9505L346.205 72.944ZM372.957 28.4L374.672 29.4297L376.491 26.4H372.957V28.4ZM341.469 28.4V26.4H340.326L339.746 27.3844L341.469 28.4ZM322.909 59.888V61.888H324.052L324.632 60.9036L322.909 59.888ZM311.773 59.888H309.773V61.888H311.773V59.888ZM311.773 28.4H313.773V26.4H311.773V28.4ZM284.125 28.4V26.4H282.125V28.4H284.125ZM284.125 59.888V61.888H286.125V59.888H284.125ZM272.989 59.888L271.266 60.9036L271.846 61.888H272.989V59.888ZM254.429 28.4L256.152 27.3844L255.572 26.4H254.429V28.4ZM222.685 28.4V26.4H219.153L220.97 29.429L222.685 28.4ZM249.565 73.2L251.293 74.2071L251.889 73.1852L251.28 72.171L249.565 73.2ZM223.453 118L221.725 116.993L219.972 120H223.453V118ZM255.197 118V120H256.353L256.93 118.998L255.197 118ZM273.629 86V84H272.473L271.896 85.0018L273.629 86ZM284.125 86H286.125V84H284.125V86ZM284.125 118H282.125V120H284.125V118ZM311.773 118V120H313.773V118H311.773ZM311.773 86V84H309.773V86H311.773ZM322.269 86L324.002 85.0018L323.425 84H322.269V86ZM340.701 118L338.968 118.998L339.545 120H340.701V118ZM372.445 118V120H375.924L374.173 116.993L372.445 118ZM347.92 73.9737L374.672 29.4297L371.242 27.3703L344.49 71.9143L347.92 73.9737ZM372.957 26.4H341.469V30.4H372.957V26.4ZM339.746 27.3844L321.186 58.8724L324.632 60.9036L343.192 29.4156L339.746 27.3844ZM322.909 57.888H311.773V61.888H322.909V57.888ZM313.773 59.888V28.4H309.773V59.888H313.773ZM311.773 26.4H284.125V30.4H311.773V26.4ZM282.125 28.4V59.888H286.125V28.4H282.125ZM284.125 57.888H272.989V61.888H284.125V57.888ZM274.712 58.8724L256.152 27.3844L252.706 29.4156L271.266 60.9036L274.712 58.8724ZM254.429 26.4H222.685V30.4H254.429V26.4ZM220.97 29.429L247.85 74.229L251.28 72.171L224.4 27.371L220.97 29.429ZM247.837 72.1929L221.725 116.993L225.181 119.007L251.293 74.2071L247.837 72.1929ZM223.453 120H255.197V116H223.453V120ZM256.93 118.998L275.362 86.9982L271.896 85.0018L253.464 117.002L256.93 118.998ZM273.629 88H284.125V84H273.629V88ZM282.125 86V118H286.125V86H282.125ZM284.125 120H311.773V116H284.125V120ZM313.773 118V86H309.773V118H313.773ZM311.773 88H322.269V84H311.773V88ZM320.536 86.9982L338.968 118.998L342.434 117.002L324.002 85.0018L320.536 86.9982ZM340.701 120H372.445V116H340.701V120ZM374.173 116.993L347.933 71.9375L344.477 73.9505L370.717 119.007L374.173 116.993ZM467.369 54.512V56.512H469.369V54.512H467.369ZM467.369 28.4H469.369V26.4H467.369V28.4ZM389.161 28.4V26.4H387.161V28.4H389.161ZM389.161 118H387.161V120H389.161V118ZM416.809 118V120H418.809V118H416.809ZM416.809 54.512V52.512H414.809V54.512H416.809ZM469.369 54.512V28.4H465.369V54.512H469.369ZM467.369 26.4H389.161V30.4H467.369V26.4ZM387.161 28.4V118H391.161V28.4H387.161ZM389.161 120H416.809V116H389.161V120ZM418.809 118V54.512H414.809V118H418.809ZM416.809 56.512H467.369V52.512H416.809V56.512ZM534.502 103.152L536.367 102.429L535.871 101.152H534.502V103.152ZM540.262 118L538.397 118.723L538.893 120H540.262V118ZM569.574 118V120H572.54L571.428 117.25L569.574 118ZM533.35 28.4L535.204 27.6504L534.699 26.4H533.35V28.4ZM499.046 28.4V26.4H497.697L497.192 27.6504L499.046 28.4ZM462.822 118L460.968 117.25L459.856 120H462.822V118ZM491.878 118V120H493.247L493.743 118.723L491.878 118ZM497.638 103.152V101.152H496.269L495.773 102.429L497.638 103.152ZM524.518 77.04V79.04H527.434L526.384 76.3198L524.518 77.04ZM507.622 77.04L505.756 76.3198L504.706 79.04H507.622V77.04ZM516.07 55.152L517.936 54.4318L516.07 49.5976L514.204 54.4318L516.07 55.152ZM532.637 103.875L538.397 118.723L542.127 117.277L536.367 102.429L532.637 103.875ZM540.262 120H569.574V116H540.262V120ZM571.428 117.25L535.204 27.6504L531.496 29.1496L567.72 118.75L571.428 117.25ZM533.35 26.4H499.046V30.4H533.35V26.4ZM497.192 27.6504L460.968 117.25L464.676 118.75L500.9 29.1496L497.192 27.6504ZM462.822 120H491.878V116H462.822V120ZM493.743 118.723L499.503 103.875L495.773 102.429L490.013 117.277L493.743 118.723ZM497.638 105.152H534.502V101.152H497.638V105.152ZM524.518 75.04H507.622V79.04H524.518V75.04ZM509.488 77.7601L517.936 55.8721L514.204 54.4318L505.756 76.3198L509.488 77.7601ZM514.204 55.8721L522.652 77.7601L526.384 76.3198L517.936 54.4318L514.204 55.8721ZM677.786 28.4H679.786V26.4H677.786V28.4ZM603.546 28.4V26.4H601.808L601.565 28.1213L603.546 28.4ZM596.378 79.344L594.397 79.0653L594.396 79.0725L594.396 79.0797L596.378 79.344ZM579.866 91.632V89.632H577.866V91.632H579.866ZM579.866 118H577.866V120H579.866V118ZM622.618 89.456L624.598 89.7406L624.599 89.7317L622.618 89.456ZM627.482 54.512V52.512H625.741L625.501 54.2363L627.482 54.512ZM650.138 54.512H652.138V52.512H650.138V54.512ZM650.138 118H648.138V120H650.138V118ZM677.786 118V120H679.786V118H677.786ZM677.786 26.4H603.546V30.4H677.786V26.4ZM601.565 28.1213L594.397 79.0653L598.358 79.6227L605.526 28.6787L601.565 28.1213ZM594.396 79.0797C593.752 83.9048 592.907 86.1998 591.244 87.5231C589.497 88.9142 586.362 89.632 579.866 89.632V93.632C586.298 93.632 590.779 93.0057 593.735 90.6528C596.777 88.2322 597.724 84.3832 598.36 79.6083L594.396 79.0797ZM577.866 91.632V118H581.866V91.632H577.866ZM579.866 120H581.786V116H579.866V120ZM581.786 120C594.736 120 604.697 117.972 611.833 113.055C619.065 108.071 623.073 100.35 624.598 89.7406L620.638 89.1714C619.219 99.0421 615.611 105.593 609.563 109.761C603.419 113.996 594.436 116 581.786 116V120ZM624.599 89.7317L629.463 54.7877L625.501 54.2363L620.637 89.1803L624.599 89.7317ZM627.482 56.512H650.138V52.512H627.482V56.512ZM648.138 54.512V118H652.138V54.512H648.138ZM650.138 120H677.786V116H650.138V120ZM679.786 118V28.4H675.786V118H679.786ZM764.297 103.152L766.162 102.429L765.666 101.152H764.297V103.152ZM770.057 118L768.192 118.723L768.688 120H770.057V118ZM799.369 118V120H802.335L801.223 117.25L799.369 118ZM763.145 28.4L764.999 27.6504L764.494 26.4H763.145V28.4ZM728.841 28.4V26.4H727.492L726.987 27.6504L728.841 28.4ZM692.617 118L690.763 117.25L689.651 120H692.617V118ZM721.673 118V120H723.042L723.538 118.723L721.673 118ZM727.433 103.152V101.152H726.064L725.568 102.429L727.433 103.152ZM754.313 77.04V79.04H757.229L756.179 76.3198L754.313 77.04ZM737.417 77.04L735.551 76.3198L734.501 79.04H737.417V77.04ZM745.865 55.152L747.731 54.4318L745.865 49.5976L743.999 54.4318L745.865 55.152ZM762.432 103.875L768.192 118.723L771.922 117.277L766.162 102.429L762.432 103.875ZM770.057 120H799.369V116H770.057V120ZM801.223 117.25L764.999 27.6504L761.291 29.1496L797.515 118.75L801.223 117.25ZM763.145 26.4H728.841V30.4H763.145V26.4ZM726.987 27.6504L690.763 117.25L694.471 118.75L730.695 29.1496L726.987 27.6504ZM692.617 120H721.673V116H692.617V120ZM723.538 118.723L729.298 103.875L725.568 102.429L719.808 117.277L723.538 118.723ZM727.433 105.152H764.297V101.152H727.433V105.152ZM754.313 75.04H737.417V79.04H754.313V75.04ZM739.283 77.7601L747.731 55.8721L743.999 54.4318L735.551 76.3198L739.283 77.7601ZM743.999 55.8721L752.447 77.7601L756.179 76.3198L747.731 54.4318L743.999 55.8721ZM881.963 72.944L880.248 71.9143L879.639 72.9283L880.235 73.9505L881.963 72.944ZM908.715 28.4L910.43 29.4297L912.249 26.4H908.715V28.4ZM877.227 28.4V26.4H876.084L875.504 27.3844L877.227 28.4ZM858.667 59.888V61.888H859.81L860.39 60.9036L858.667 59.888ZM841.899 59.888H839.899V61.888H841.899V59.888ZM841.899 28.4H843.899V26.4H841.899V28.4ZM814.251 28.4V26.4H812.251V28.4H814.251ZM814.251 118H812.251V120H814.251V118ZM841.899 118V120H843.899V118H841.899ZM841.899 86V84H839.899V86H841.899ZM858.027 86L859.76 85.0018L859.183 84H858.027V86ZM876.459 118L874.726 118.998L875.303 120H876.459V118ZM908.203 118V120H911.682L909.931 116.993L908.203 118ZM883.678 73.9737L910.43 29.4297L907 27.3703L880.248 71.9143L883.678 73.9737ZM908.715 26.4H877.227V30.4H908.715V26.4ZM875.504 27.3844L856.944 58.8724L860.39 60.9036L878.95 29.4156L875.504 27.3844ZM858.667 57.888H841.899V61.888H858.667V57.888ZM843.899 59.888V28.4H839.899V59.888H843.899ZM841.899 26.4H814.251V30.4H841.899V26.4ZM812.251 28.4V118H816.251V28.4H812.251ZM814.251 120H841.899V116H814.251V120ZM843.899 118V86H839.899V118H843.899ZM841.899 88H858.027V84H841.899V88ZM856.294 86.9982L874.726 118.998L878.192 117.002L859.76 85.0018L856.294 86.9982ZM876.459 120H908.203V116H876.459V120ZM909.931 116.993L883.691 71.9375L880.235 73.9505L906.475 119.007L909.931 116.993ZM1013.28 54.512V56.512H1015.28V54.512H1013.28ZM1013.28 28.4H1015.28V26.4H1013.28V28.4ZM920.865 28.4V26.4H918.865V28.4H920.865ZM920.865 54.512H918.865V56.512H920.865V54.512ZM953.249 54.512H955.249V52.512H953.249V54.512ZM953.249 118H951.249V120H953.249V118ZM980.897 118V120H982.897V118H980.897ZM980.897 54.512V52.512H978.897V54.512H980.897ZM1015.28 54.512V28.4H1011.28V54.512H1015.28ZM1013.28 26.4H920.865V30.4H1013.28V26.4ZM918.865 28.4V54.512H922.865V28.4H918.865ZM920.865 56.512H953.249V52.512H920.865V56.512ZM951.249 54.512V118H955.249V54.512H951.249ZM953.249 120H980.897V116H953.249V120ZM982.897 118V54.512H978.897V118H982.897ZM980.897 56.512H1013.28V52.512H980.897V56.512ZM1124.86 118V120H1126.86V118H1124.86ZM1124.86 28.4H1126.86V26.4H1124.86V28.4ZM1096.7 28.4V26.4H1095.79L1095.19 27.0896L1096.7 28.4ZM1059.07 71.792H1057.07V77.1507L1060.58 73.1024L1059.07 71.792ZM1059.07 28.4H1061.07V26.4H1059.07V28.4ZM1031.42 28.4V26.4H1029.42V28.4H1031.42ZM1031.42 118H1029.42V120H1031.42V118ZM1055.36 118V120H1056.27L1056.87 119.31L1055.36 118ZM1097.21 69.744H1099.21V64.3859L1095.7 68.4335L1097.21 69.744ZM1097.21 118H1095.21V120H1097.21V118ZM1126.86 118V28.4H1122.86V118H1126.86ZM1124.86 26.4H1096.7V30.4H1124.86V26.4ZM1095.19 27.0896L1057.56 70.4816L1060.58 73.1024L1098.21 29.7104L1095.19 27.0896ZM1061.07 71.792V28.4H1057.07V71.792H1061.07ZM1059.07 26.4H1031.42V30.4H1059.07V26.4ZM1029.42 28.4V118H1033.42V28.4H1029.42ZM1031.42 120H1055.36V116H1031.42V120ZM1056.87 119.31L1098.72 71.0545L1095.7 68.4335L1053.85 116.69L1056.87 119.31ZM1095.21 69.744V118H1099.21V69.744H1095.21ZM1097.21 120H1124.86V116H1097.21V120ZM1235.19 28.4H1237.19V26.4H1235.19V28.4ZM1207.55 28.4V26.4H1205.55V28.4H1207.55ZM1207.55 59.632V61.632H1209.55V59.632H1207.55ZM1189.37 59.632L1189.32 61.6314L1189.35 61.632H1189.37V59.632ZM1172.22 42.48H1170.22V42.505L1170.22 42.53L1172.22 42.48ZM1172.22 28.4H1174.22V26.4H1172.22V28.4ZM1144.57 28.4V26.4H1142.57V28.4H1144.57ZM1144.57 43.12H1142.57V43.1384L1142.57 43.1569L1144.57 43.12ZM1187.45 86L1187.41 87.9997L1187.43 88H1187.45V86ZM1207.55 86H1209.55V84H1207.55V86ZM1207.55 118H1205.55V120H1207.55V118ZM1235.19 118V120H1237.19V118H1235.19ZM1235.19 26.4H1207.55V30.4H1235.19V26.4ZM1205.55 28.4V59.632H1209.55V28.4H1205.55ZM1207.55 57.632H1189.37V61.632H1207.55V57.632ZM1189.42 57.6326C1185.57 57.5365 1182.75 57.3771 1180.63 56.9835C1178.52 56.5929 1177.35 56.0125 1176.59 55.2578C1175.84 54.503 1175.26 53.3283 1174.87 51.2214C1174.47 49.0983 1174.31 46.2768 1174.22 42.43L1170.22 42.53C1170.32 46.3631 1170.48 49.4777 1170.93 51.9505C1171.4 54.4397 1172.2 56.521 1173.76 58.0862C1175.33 59.6515 1177.41 60.4551 1179.9 60.9165C1182.37 61.3749 1185.49 61.5355 1189.32 61.6314L1189.42 57.6326ZM1174.22 42.48V28.4H1170.22V42.48H1174.22ZM1172.22 26.4H1144.57V30.4H1172.22V26.4ZM1142.57 28.4V43.12H1146.57V28.4H1142.57ZM1142.57 43.1569C1142.89 60.4419 1144.89 71.8044 1151.83 78.7422C1158.77 85.68 1170.13 87.6807 1187.41 87.9997L1187.49 84.0003C1170.08 83.6792 1160.33 81.584 1154.66 75.9138C1148.99 70.2436 1146.89 60.4861 1146.57 43.0831L1142.57 43.1569ZM1187.45 88H1207.55V84H1187.45V88ZM1205.55 86V118H1209.55V86H1205.55ZM1207.55 120H1235.19V116H1207.55V120ZM1237.19 118V28.4H1233.19V118H1237.19ZM1339 91.888H1341V89.888H1339V91.888ZM1285.11 91.888H1283.11V93.888H1285.11V91.888ZM1285.11 85.36V83.36H1283.11V85.36H1285.11ZM1321.47 85.36V87.36H1323.47V85.36H1321.47ZM1321.47 60.784H1323.47V58.784H1321.47V60.784ZM1285.11 60.784H1283.11V62.784H1285.11V60.784ZM1285.11 54.512V52.512H1283.11V54.512H1285.11ZM1338.75 54.512V56.512H1340.75V54.512H1338.75ZM1338.75 28.4H1340.75V26.4H1338.75V28.4ZM1257.47 28.4V26.4H1255.47V28.4H1257.47ZM1257.47 118H1255.47V120H1257.47V118ZM1339 118V120H1341V118H1339ZM1339 89.888H1285.11V93.888H1339V89.888ZM1287.11 91.888V85.36H1283.11V91.888H1287.11ZM1285.11 87.36H1321.47V83.36H1285.11V87.36ZM1323.47 85.36V60.784H1319.47V85.36H1323.47ZM1321.47 58.784H1285.11V62.784H1321.47V58.784ZM1287.11 60.784V54.512H1283.11V60.784H1287.11ZM1285.11 56.512H1338.75V52.512H1285.11V56.512ZM1340.75 54.512V28.4H1336.75V54.512H1340.75ZM1338.75 26.4H1257.47V30.4H1338.75V26.4ZM1255.47 28.4V118H1259.47V28.4H1255.47ZM1257.47 120H1339V116H1257.47V120ZM1341 118V91.888H1337V118H1341ZM1450.6 57.712V59.712H1452.6V57.712H1450.6ZM1399.01 26.224V24.224H1399L1398.99 24.2241L1399.01 26.224ZM1356.13 69.104L1354.13 69.0803L1354.13 69.0921V69.104H1356.13ZM1356.13 77.296H1354.13V77.3079L1354.13 77.3197L1356.13 77.296ZM1399.01 120.176L1398.99 122.176L1399 122.176H1399.01V120.176ZM1450.6 88.688H1452.6V86.688H1450.6V88.688ZM1421.93 88.688V86.688H1420.4L1420 88.1561L1421.93 88.688ZM1421.93 57.712L1420 58.2439L1420.4 59.712H1421.93V57.712ZM1452.6 57.712C1452.6 46.6655 1448.86 38.1625 1441.68 32.48C1434.58 26.8602 1424.4 24.224 1411.94 24.224V28.224C1423.93 28.224 1433.08 30.7718 1439.2 35.616C1445.24 40.3975 1448.6 47.6385 1448.6 57.712H1452.6ZM1411.94 24.224H1399.01V28.224H1411.94V24.224ZM1398.99 24.2241C1382.71 24.4171 1371.38 27.0329 1364.16 34.2498C1356.94 41.4667 1354.33 52.8042 1354.13 69.0803L1358.13 69.1277C1358.32 53.0197 1360.96 43.1093 1366.99 37.0782C1373.02 31.0471 1382.93 28.4149 1399.04 28.2239L1398.99 24.2241ZM1354.13 69.104V77.296H1358.13V69.104H1354.13ZM1354.13 77.3197C1354.33 93.5957 1356.94 104.933 1364.16 112.15C1371.38 119.367 1382.71 121.983 1398.99 122.176L1399.04 118.176C1382.93 117.985 1373.02 115.353 1366.99 109.322C1360.96 103.291 1358.32 93.3802 1358.13 77.2723L1354.13 77.3197ZM1399.01 122.176H1411.94V118.176H1399.01V122.176ZM1411.94 122.176C1424.4 122.176 1434.58 119.54 1441.68 113.92C1448.86 108.238 1452.6 99.7345 1452.6 88.688H1448.6C1448.6 98.7615 1445.24 106.002 1439.2 110.784C1433.08 115.628 1423.93 118.176 1411.94 118.176V122.176ZM1450.6 86.688H1421.93V90.688H1450.6V86.688ZM1420 88.1561C1419.8 88.8874 1419.54 89.3699 1419.23 89.7321C1418.91 90.0901 1418.43 90.4489 1417.58 90.7673C1415.77 91.4433 1412.71 91.808 1407.33 91.808V95.808C1412.71 95.808 1416.43 95.4687 1418.98 94.5127C1420.31 94.0151 1421.39 93.3259 1422.23 92.3759C1423.06 91.4301 1423.54 90.3446 1423.85 89.2199L1420 88.1561ZM1407.33 91.808H1400.93V95.808H1407.33V91.808ZM1400.93 91.808C1397.39 91.808 1394.69 91.6312 1392.62 91.1883C1390.58 90.7502 1389.28 90.0809 1388.4 89.1938C1387.51 88.3067 1386.84 87.0122 1386.4 84.9654C1385.96 82.8962 1385.78 80.2019 1385.78 76.656H1381.78C1381.78 80.2781 1381.96 83.3118 1382.49 85.8026C1383.03 88.3158 1383.96 90.4133 1385.57 92.0222C1387.18 93.6311 1389.27 94.5618 1391.79 95.0997C1394.28 95.6328 1397.31 95.808 1400.93 95.808V91.808ZM1385.78 76.656V69.744H1381.78V76.656H1385.78ZM1385.78 69.744C1385.78 66.2641 1385.96 63.6018 1386.4 61.5447C1386.84 59.5097 1387.51 58.2003 1388.41 57.2932C1389.3 56.3873 1390.6 55.6989 1392.64 55.2441C1394.71 54.7842 1397.4 54.592 1400.93 54.592V50.592C1397.3 50.592 1394.27 50.7838 1391.77 51.3399C1389.25 51.9011 1387.16 52.8607 1385.56 54.4828C1383.96 56.1037 1383.03 58.2023 1382.49 60.7033C1381.96 63.1822 1381.78 66.1839 1381.78 69.744H1385.78ZM1400.93 54.592H1407.33V50.592H1400.93V54.592ZM1407.33 54.592C1412.71 54.592 1415.77 54.9567 1417.58 55.6327C1418.43 55.9511 1418.91 56.3099 1419.23 56.6679C1419.54 57.0301 1419.8 57.5126 1420 58.2439L1423.85 57.1801C1423.54 56.0554 1423.06 54.9699 1422.23 54.0241C1421.39 53.0741 1420.31 52.3849 1418.98 51.8873C1416.43 50.9313 1412.71 50.592 1407.33 50.592V54.592ZM1421.93 59.712H1450.6V55.712H1421.93V59.712ZM1537.97 72.944L1536.26 71.9143L1535.65 72.9283L1536.24 73.9505L1537.97 72.944ZM1564.72 28.4L1566.44 29.4297L1568.26 26.4H1564.72V28.4ZM1533.24 28.4V26.4H1532.09L1531.51 27.3844L1533.24 28.4ZM1514.68 59.888V61.888H1515.82L1516.4 60.9036L1514.68 59.888ZM1497.91 59.888H1495.91V61.888H1497.91V59.888ZM1497.91 28.4H1499.91V26.4H1497.91V28.4ZM1470.26 28.4V26.4H1468.26V28.4H1470.26ZM1470.26 118H1468.26V120H1470.26V118ZM1497.91 118V120H1499.91V118H1497.91ZM1497.91 86V84H1495.91V86H1497.91ZM1514.04 86L1515.77 85.0018L1515.19 84H1514.04V86ZM1532.47 118L1530.74 118.998L1531.31 120H1532.47V118ZM1564.21 118V120H1567.69L1565.94 116.993L1564.21 118ZM1539.69 73.9737L1566.44 29.4297L1563.01 27.3703L1536.26 71.9143L1539.69 73.9737ZM1564.72 26.4H1533.24V30.4H1564.72V26.4ZM1531.51 27.3844L1512.95 58.8724L1516.4 60.9036L1534.96 29.4156L1531.51 27.3844ZM1514.68 57.888H1497.91V61.888H1514.68V57.888ZM1499.91 59.888V28.4H1495.91V59.888H1499.91ZM1497.91 26.4H1470.26V30.4H1497.91V26.4ZM1468.26 28.4V118H1472.26V28.4H1468.26ZM1470.26 120H1497.91V116H1470.26V120ZM1499.91 118V86H1495.91V118H1499.91ZM1497.91 88H1514.04V84H1497.91V88ZM1512.3 86.9982L1530.74 118.998L1534.2 117.002L1515.77 85.0018L1512.3 86.9982ZM1532.47 120H1564.21V116H1532.47V120ZM1565.94 116.993L1539.7 71.9375L1536.24 73.9505L1562.48 119.007L1565.94 116.993ZM1674.41 118V120H1676.41V118H1674.41ZM1674.41 28.4H1676.41V26.4H1674.41V28.4ZM1646.25 28.4V26.4H1645.34L1644.74 27.0896L1646.25 28.4ZM1608.62 71.792H1606.62V77.1507L1610.13 73.1024L1608.62 71.792ZM1608.62 28.4H1610.62V26.4H1608.62V28.4ZM1580.97 28.4V26.4H1578.97V28.4H1580.97ZM1580.97 118H1578.97V120H1580.97V118ZM1604.91 118V120H1605.82L1606.42 119.31L1604.91 118ZM1646.76 69.744H1648.76V64.3859L1645.25 68.4335L1646.76 69.744ZM1646.76 118H1644.76V120H1646.76V118ZM1676.41 118V28.4H1672.41V118H1676.41ZM1674.41 26.4H1646.25V30.4H1674.41V26.4ZM1644.74 27.0896L1607.11 70.4816L1610.13 73.1024L1647.76 29.7104L1644.74 27.0896ZM1610.62 71.792V28.4H1606.62V71.792H1610.62ZM1608.62 26.4H1580.97V30.4H1608.62V26.4ZM1578.97 28.4V118H1582.97V28.4H1578.97ZM1580.97 120H1604.91V116H1580.97V120ZM1606.42 119.31L1648.27 71.0545L1645.25 68.4335L1603.4 116.69L1606.42 119.31ZM1644.76 69.744V118H1648.76V69.744H1644.76ZM1646.76 120H1674.41V116H1646.76V120ZM1790.12 118V120H1792.12V118H1790.12ZM1790.12 28.4H1792.12V26.4H1790.12V28.4ZM1761.96 28.4V26.4H1761.05L1760.45 27.0896L1761.96 28.4ZM1724.33 71.792H1722.33V77.1507L1725.84 73.1024L1724.33 71.792ZM1724.33 28.4H1726.33V26.4H1724.33V28.4ZM1696.68 28.4V26.4H1694.68V28.4H1696.68ZM1696.68 118H1694.68V120H1696.68V118ZM1720.62 118V120H1721.53L1722.13 119.31L1720.62 118ZM1762.47 69.744H1764.47V64.3859L1760.96 68.4335L1762.47 69.744ZM1762.47 118H1760.47V120H1762.47V118ZM1767.47 0.111992H1769.47V-1.88801H1767.47V0.111992ZM1754.15 0.111992V-1.88801H1752.15V0.111992H1754.15ZM1732.91 0.111992H1734.91V-1.88801H1732.91V0.111992ZM1719.59 0.111992V-1.88801H1717.59V0.111992H1719.59ZM1792.12 118V28.4H1788.12V118H1792.12ZM1790.12 26.4H1761.96V30.4H1790.12V26.4ZM1760.45 27.0896L1722.82 70.4816L1725.84 73.1024L1763.47 29.7104L1760.45 27.0896ZM1726.33 71.792V28.4H1722.33V71.792H1726.33ZM1724.33 26.4H1696.68V30.4H1724.33V26.4ZM1694.68 28.4V118H1698.68V28.4H1694.68ZM1696.68 120H1720.62V116H1696.68V120ZM1722.13 119.31L1763.98 71.0545L1760.96 68.4335L1719.11 116.69L1722.13 119.31ZM1760.47 69.744V118H1764.47V69.744H1760.47ZM1762.47 120H1790.12V116H1762.47V120ZM1743.53 24.768C1751.35 24.768 1757.86 22.6935 1762.44 18.6132C1767.05 14.5056 1769.47 8.57835 1769.47 1.39199H1765.47C1765.47 7.64564 1763.4 12.4064 1759.78 15.6268C1756.14 18.8745 1750.68 20.768 1743.53 20.768V24.768ZM1769.47 1.39199V0.111992H1765.47V1.39199H1769.47ZM1767.47 -1.88801H1754.15V2.11199H1767.47V-1.88801ZM1752.15 0.111992C1752.15 2.61132 1751.26 4.52119 1749.84 5.82012C1748.4 7.13576 1746.26 7.96799 1743.53 7.96799V11.968C1747.07 11.968 1750.24 10.8802 1752.54 8.77187C1754.87 6.6468 1756.15 3.62867 1756.15 0.111992H1752.15ZM1743.53 7.96799C1740.8 7.96799 1738.65 7.13576 1737.21 5.82012C1735.79 4.52119 1734.91 2.61132 1734.91 0.111992H1730.91C1730.91 3.62867 1732.19 6.6468 1734.52 8.77187C1736.82 10.8802 1739.99 11.968 1743.53 11.968V7.96799ZM1732.91 -1.88801H1719.59V2.11199H1732.91V-1.88801ZM1717.59 0.111992V1.39199H1721.59V0.111992H1717.59ZM1717.59 1.39199C1717.59 8.57835 1720 14.5056 1724.61 18.6132C1729.19 22.6935 1735.7 24.768 1743.53 24.768V20.768C1736.38 20.768 1730.92 18.8745 1727.28 15.6268C1723.66 12.4064 1721.59 7.64564 1721.59 1.39199H1717.59ZM52.352 248.192L53.9872 247.04L52.3883 244.77L50.7417 247.006L52.352 248.192ZM69.12 272L67.4848 273.152L68.0824 274H69.12V272ZM104.064 272V274H108.044L105.669 270.807L104.064 272ZM70.272 226.56L68.6726 225.359L67.7754 226.554L68.6671 227.753L70.272 226.56ZM103.424 182.4L105.023 183.601L107.426 180.4H103.424V182.4ZM69.12 182.4V180.4H68.0948L67.4962 181.232L69.12 182.4ZM52.736 205.184L51.1209 206.364L52.7486 208.592L54.3598 206.352L52.736 205.184ZM36.096 182.4L37.7111 181.22L37.1119 180.4H36.096V182.4ZM1.152 182.4V180.4H-2.83414L-0.45133 183.596L1.152 182.4ZM34.176 226.688L35.7814 227.881L36.6692 226.686L35.7793 225.492L34.176 226.688ZM0.512 272L-1.09343 270.807L-3.46543 274H0.512V272ZM34.816 272V274H35.8268L36.4263 273.186L34.816 272ZM50.7168 249.344L67.4848 273.152L70.7552 270.848L53.9872 247.04L50.7168 249.344ZM69.12 274H104.064V270H69.12V274ZM105.669 270.807L71.8769 225.367L68.6671 227.753L102.459 273.193L105.669 270.807ZM71.8714 227.761L105.023 183.601L101.825 181.199L68.6726 225.359L71.8714 227.761ZM103.424 180.4H69.12V184.4H103.424V180.4ZM67.4962 181.232L51.1122 204.016L54.3598 206.352L70.7438 183.568L67.4962 181.232ZM54.3511 204.004L37.7111 181.22L34.4809 183.58L51.1209 206.364L54.3511 204.004ZM36.096 180.4H1.152V184.4H36.096V180.4ZM-0.45133 183.596L32.5727 227.884L35.7793 225.492L2.75533 181.204L-0.45133 183.596ZM32.5706 225.495L-1.09343 270.807L2.11743 273.193L35.7814 227.881L32.5706 225.495ZM0.512 274H34.816V270H0.512V274ZM36.4263 273.186L53.9623 249.378L50.7417 247.006L33.2057 270.814L36.4263 273.186ZM182.622 257.152L184.487 256.429L183.991 255.152H182.622V257.152ZM188.382 272L186.517 272.723L187.013 274H188.382V272ZM217.694 272V274H220.66L219.548 271.25L217.694 272ZM181.47 182.4L183.324 181.65L182.819 180.4H181.47V182.4ZM147.166 182.4V180.4H145.817L145.312 181.65L147.166 182.4ZM110.942 272L109.088 271.25L107.976 274H110.942V272ZM139.998 272V274H141.367L141.863 272.723L139.998 272ZM145.758 257.152V255.152H144.389L143.893 256.429L145.758 257.152ZM172.638 231.04V233.04H175.554L174.504 230.32L172.638 231.04ZM155.742 231.04L153.876 230.32L152.826 233.04H155.742V231.04ZM164.19 209.152L166.056 208.432L164.19 203.598L162.324 208.432L164.19 209.152ZM180.757 257.875L186.517 272.723L190.247 271.277L184.487 256.429L180.757 257.875ZM188.382 274H217.694V270H188.382V274ZM219.548 271.25L183.324 181.65L179.616 183.15L215.84 272.75L219.548 271.25ZM181.47 180.4H147.166V184.4H181.47V180.4ZM145.312 181.65L109.088 271.25L112.796 272.75L149.02 183.15L145.312 181.65ZM110.942 274H139.998V270H110.942V274ZM141.863 272.723L147.623 257.875L143.893 256.429L138.133 271.277L141.863 272.723ZM145.758 259.152H182.622V255.152H145.758V259.152ZM172.638 229.04H155.742V233.04H172.638V229.04ZM157.608 231.76L166.056 209.872L162.324 208.432L153.876 230.32L157.608 231.76ZM162.324 209.872L170.772 231.76L174.504 230.32L166.056 208.432L162.324 209.872ZM300.288 226.944L298.573 225.914L297.964 226.928L298.56 227.951L300.288 226.944ZM327.04 182.4L328.755 183.43L330.574 180.4H327.04V182.4ZM295.552 182.4V180.4H294.409L293.829 181.384L295.552 182.4ZM276.992 213.888V215.888H278.135L278.715 214.904L276.992 213.888ZM260.224 213.888H258.224V215.888H260.224V213.888ZM260.224 182.4H262.224V180.4H260.224V182.4ZM232.576 182.4V180.4H230.576V182.4H232.576ZM232.576 272H230.576V274H232.576V272ZM260.224 272V274H262.224V272H260.224ZM260.224 240V238H258.224V240H260.224ZM276.352 240L278.085 239.002L277.508 238H276.352V240ZM294.784 272L293.051 272.998L293.628 274H294.784V272ZM326.528 272V274H330.007L328.256 270.993L326.528 272ZM302.003 227.974L328.755 183.43L325.325 181.37L298.573 225.914L302.003 227.974ZM327.04 180.4H295.552V184.4H327.04V180.4ZM293.829 181.384L275.269 212.872L278.715 214.904L297.275 183.416L293.829 181.384ZM276.992 211.888H260.224V215.888H276.992V211.888ZM262.224 213.888V182.4H258.224V213.888H262.224ZM260.224 180.4H232.576V184.4H260.224V180.4ZM230.576 182.4V272H234.576V182.4H230.576ZM232.576 274H260.224V270H232.576V274ZM262.224 272V240H258.224V272H262.224ZM260.224 242H276.352V238H260.224V242ZM274.619 240.998L293.051 272.998L296.517 271.002L278.085 239.002L274.619 240.998ZM294.784 274H326.528V270H294.784V274ZM328.256 270.993L302.016 225.937L298.56 227.951L324.8 273.007L328.256 270.993ZM405.667 257.152L407.532 256.429L407.036 255.152H405.667V257.152ZM411.427 272L409.562 272.723L410.058 274H411.427V272ZM440.739 272V274H443.705L442.593 271.25L440.739 272ZM404.515 182.4L406.369 181.65L405.864 180.4H404.515V182.4ZM370.211 182.4V180.4H368.862L368.357 181.65L370.211 182.4ZM333.987 272L332.133 271.25L331.021 274H333.987V272ZM363.043 272V274H364.412L364.908 272.723L363.043 272ZM368.803 257.152V255.152H367.434L366.938 256.429L368.803 257.152ZM395.683 231.04V233.04H398.599L397.549 230.32L395.683 231.04ZM378.787 231.04L376.921 230.32L375.871 233.04H378.787V231.04ZM387.235 209.152L389.101 208.432L387.235 203.598L385.369 208.432L387.235 209.152ZM403.802 257.875L409.562 272.723L413.292 271.277L407.532 256.429L403.802 257.875ZM411.427 274H440.739V270H411.427V274ZM442.593 271.25L406.369 181.65L402.661 183.15L438.885 272.75L442.593 271.25ZM404.515 180.4H370.211V184.4H404.515V180.4ZM368.357 181.65L332.133 271.25L335.841 272.75L372.065 183.15L368.357 181.65ZM333.987 274H363.043V270H333.987V274ZM364.908 272.723L370.668 257.875L366.938 256.429L361.178 271.277L364.908 272.723ZM368.803 259.152H405.667V255.152H368.803V259.152ZM395.683 229.04H378.787V233.04H395.683V229.04ZM380.653 231.76L389.101 209.872L385.369 208.432L376.921 230.32L380.653 231.76ZM385.369 209.872L393.817 231.76L397.549 230.32L389.101 208.432L385.369 209.872ZM529.566 208.512V210.512H531.566V208.512H529.566ZM529.566 182.4H531.566V180.4H529.566V182.4ZM437.15 182.4V180.4H435.15V182.4H437.15ZM437.15 208.512H435.15V210.512H437.15V208.512ZM469.534 208.512H471.534V206.512H469.534V208.512ZM469.534 272H467.534V274H469.534V272ZM497.182 272V274H499.182V272H497.182ZM497.182 208.512V206.512H495.182V208.512H497.182ZM531.566 208.512V182.4H527.566V208.512H531.566ZM529.566 180.4H437.15V184.4H529.566V180.4ZM435.15 182.4V208.512H439.15V182.4H435.15ZM437.15 210.512H469.534V206.512H437.15V210.512ZM467.534 208.512V272H471.534V208.512H467.534ZM469.534 274H497.182V270H469.534V274ZM499.182 272V208.512H495.182V272H499.182ZM497.182 210.512H529.566V206.512H497.182V210.512ZM642.325 223.104H644.325V223.092L644.325 223.08L642.325 223.104ZM599.445 180.224L599.469 178.224L599.457 178.224H599.445V180.224ZM587.669 180.224V178.224H587.657L587.645 178.224L587.669 180.224ZM544.789 223.104L542.789 223.08L542.789 223.092V223.104H544.789ZM544.789 231.296H542.789V231.308L542.789 231.32L544.789 231.296ZM587.669 274.176L587.645 276.176L587.657 276.176H587.669V274.176ZM599.445 274.176V276.176H599.457L599.469 276.176L599.445 274.176ZM642.325 231.296L644.325 231.32L644.325 231.308V231.296H642.325ZM644.325 223.08C644.132 206.804 641.516 195.467 634.299 188.25C627.082 181.033 615.745 178.417 599.469 178.224L599.421 182.224C615.529 182.415 625.44 185.047 631.471 191.078C637.502 197.109 640.134 207.02 640.325 223.128L644.325 223.08ZM599.445 178.224H587.669V182.224H599.445V178.224ZM587.645 178.224C571.369 178.417 560.032 181.033 552.815 188.25C545.598 195.467 542.982 206.804 542.789 223.08L546.789 223.128C546.98 207.02 549.612 197.109 555.643 191.078C561.674 185.047 571.585 182.415 587.693 182.224L587.645 178.224ZM542.789 223.104V231.296H546.789V223.104H542.789ZM542.789 231.32C542.982 247.596 545.598 258.933 552.815 266.15C560.032 273.367 571.369 275.983 587.645 276.176L587.693 272.176C571.585 271.985 561.674 269.353 555.643 263.322C549.612 257.291 546.98 247.38 546.789 231.272L542.789 231.32ZM587.669 276.176H599.445V272.176H587.669V276.176ZM599.469 276.176C615.745 275.983 627.082 273.367 634.299 266.15C641.516 258.933 644.132 247.596 644.325 231.32L640.325 231.272C640.134 247.38 637.502 257.291 631.471 263.322C625.44 269.353 615.529 271.985 599.421 272.176L599.469 276.176ZM644.325 231.296V223.104H640.325V231.296H644.325ZM574.437 223.744C574.437 220.264 574.614 217.602 575.056 215.545C575.494 213.51 576.165 212.2 577.06 211.293C577.955 210.387 579.255 209.699 581.296 209.244C583.36 208.784 586.05 208.592 589.589 208.592V204.592C585.96 204.592 582.922 204.784 580.426 205.34C577.907 205.901 575.815 206.861 574.214 208.483C572.613 210.104 571.684 212.202 571.146 214.703C570.612 217.182 570.437 220.184 570.437 223.744H574.437ZM589.589 208.592H597.525V204.592H589.589V208.592ZM597.525 208.592C601.064 208.592 603.754 208.784 605.818 209.244C607.859 209.699 609.159 210.387 610.054 211.293C610.949 212.2 611.62 213.51 612.058 215.545C612.5 217.602 612.677 220.264 612.677 223.744H616.677C616.677 220.184 616.502 217.182 615.968 214.703C615.43 212.202 614.501 210.104 612.9 208.483C611.299 206.861 609.207 205.901 606.688 205.34C604.192 204.784 601.154 204.592 597.525 204.592V208.592ZM612.677 223.744V230.656H616.677V223.744H612.677ZM612.677 230.656C612.677 234.202 612.5 236.896 612.057 238.965C611.619 241.012 610.95 242.307 610.063 243.194C609.176 244.081 607.881 244.75 605.834 245.188C603.765 245.631 601.071 245.808 597.525 245.808V249.808C601.147 249.808 604.181 249.633 606.672 249.1C609.185 248.562 611.282 247.631 612.891 246.022C614.5 244.413 615.431 242.316 615.969 239.803C616.502 237.312 616.677 234.278 616.677 230.656H612.677ZM597.525 245.808H589.589V249.808H597.525V245.808ZM589.589 245.808C586.043 245.808 583.349 245.631 581.28 245.188C579.233 244.75 577.938 244.081 577.051 243.194C576.164 242.307 575.495 241.012 575.057 238.965C574.614 236.896 574.437 234.202 574.437 230.656H570.437C570.437 234.278 570.612 237.312 571.145 239.803C571.683 242.316 572.614 244.413 574.223 246.022C575.832 247.631 577.929 248.562 580.442 249.1C582.933 249.633 585.967 249.808 589.589 249.808V245.808ZM574.437 230.656V223.744H570.437V230.656H574.437ZM755.207 182.4H757.207V180.4H755.207V182.4ZM727.559 182.4V180.4H725.559V182.4H727.559ZM727.559 213.888V215.888H729.559V213.888H727.559ZM690.439 213.888H688.439V215.888H690.439V213.888ZM690.439 182.4H692.439V180.4H690.439V182.4ZM662.791 182.4V180.4H660.791V182.4H662.791ZM662.791 272H660.791V274H662.791V272ZM690.439 272V274H692.439V272H690.439ZM690.439 240V238H688.439V240H690.439ZM727.559 240H729.559V238H727.559V240ZM727.559 272H725.559V274H727.559V272ZM755.207 272V274H757.207V272H755.207ZM755.207 180.4H727.559V184.4H755.207V180.4ZM725.559 182.4V213.888H729.559V182.4H725.559ZM727.559 211.888H690.439V215.888H727.559V211.888ZM692.439 213.888V182.4H688.439V213.888H692.439ZM690.439 180.4H662.791V184.4H690.439V180.4ZM660.791 182.4V272H664.791V182.4H660.791ZM662.791 274H690.439V270H662.791V274ZM692.439 272V240H688.439V272H692.439ZM690.439 242H727.559V238H690.439V242ZM725.559 240V272H729.559V240H725.559ZM727.559 274H755.207V270H727.559V274ZM757.207 272V182.4H753.207V272H757.207Z" fill="white"></path> </svg> 